<?xml version="1.0" standalone="no"?>
<!DOCTYPE svg PUBLIC "-//W3C//DTD SVG 20010904//EN"
 "http://www.w3.org/TR/2001/REC-SVG-20010904/DTD/svg10.dtd">
<svg version="1.0" xmlns="http://www.w3.org/2000/svg"
 width="1080.000000pt" height="1080.000000pt" viewBox="0 0 1080.000000 1080.000000"
 preserveAspectRatio="xMidYMid meet">
<metadata>
Created by potrace 1.11, written by Peter Selinger 2001-2013
</metadata>
<g transform="translate(0.000000,1080.000000) scale(0.100000,-0.100000)"
fill="#000000" stroke="none">
<path d="M4870 10113 c-99 -90 -132 -156 -131 -260 1 -108 -4 -119 -91 -200
-10 -9 -18 -24 -18 -33 0 -33 -41 -69 -132 -117 -56 -29 -101 -61 -117 -82
-66 -86 -86 -103 -177 -146 -52 -25 -94 -50 -94 -57 0 -10 113 -7 190 6 83 14
127 18 235 21 66 2 124 0 130 -3 5 -3 18 -7 30 -9 40 -5 51 -9 107 -37 32 -15
76 -49 99 -75 90 -100 101 -111 110 -111 5 0 9 10 10 23 0 12 3 31 5 42 11 49
4 109 -17 140 -24 34 -56 51 -189 97 -47 16 -109 39 -138 51 l-52 21 31 13
c18 7 45 16 61 18 40 7 78 34 89 62 5 13 14 23 22 23 7 0 42 -32 77 -71 36
-39 85 -85 110 -102 71 -47 111 -88 131 -134 29 -67 49 -56 56 31 11 156 16
169 49 138 11 -10 41 -53 68 -94 51 -80 89 -110 100 -81 6 14 -2 69 -19 153
-14 64 -16 110 -6 129 11 19 12 20 31 3 11 -9 36 -58 56 -109 51 -132 57 -132
80 -8 3 16 7 31 10 34 11 11 26 -20 30 -60 7 -76 12 -100 25 -115 17 -21 36
-1 77 78 18 35 47 79 65 99 86 96 246 189 432 251 100 34 135 37 135 14 0 -34
-132 -122 -491 -325 -83 -47 -109 -74 -108 -113 0 -46 42 -201 55 -205 5 -2
18 16 29 39 10 24 26 54 36 68 18 26 91 68 131 76 13 2 34 6 48 9 14 3 63 8
110 12 133 9 150 8 150 -11 0 -9 -16 -17 -42 -21 -93 -16 -320 -119 -326 -148
-2 -10 21 -29 69 -57 77 -46 178 -126 248 -199 59 -63 176 -207 192 -239 8
-15 26 -45 40 -67 53 -80 188 -355 239 -485 12 -30 27 -68 34 -85 29 -67 36
-86 36 -98 -1 -7 -8 2 -17 18 -43 81 -109 103 -189 65 -56 -27 -97 -87 -100
-147 -3 -47 12 -49 18 -3 13 86 114 139 190 99 31 -16 68 -60 69 -81 2 -23 2
-53 0 -74 -2 -31 -66 -83 -110 -90 -58 -9 -53 -28 5 -20 89 12 138 68 137 158
0 32 1 58 2 58 2 0 11 -24 20 -52 9 -29 20 -62 25 -73 21 -48 85 -278 80 -287
-1 -2 3 -14 8 -28 5 -14 13 -47 16 -74 4 -27 9 -52 11 -56 2 -4 7 -29 11 -56
3 -27 8 -58 11 -69 4 -21 12 -76 18 -135 2 -19 9 -69 15 -110 27 -200 35 -260
45 -370 27 -287 35 -412 40 -659 2 -106 7 -212 10 -234 10 -58 33 -107 50
-107 8 0 31 19 52 42 130 145 139 153 184 153 37 0 46 -6 79 -43 21 -23 40
-52 43 -64 3 -13 12 -47 21 -77 54 -193 30 -412 -69 -616 -43 -90 -121 -185
-151 -185 -8 0 -14 -4 -14 -10 0 -13 -101 -41 -131 -36 -13 3 -27 5 -31 5 -23
3 -40 56 -44 143 -9 193 -23 319 -35 332 -13 15 -34 -19 -60 -99 -12 -38 -29
-80 -37 -93 -32 -49 -31 -59 -47 613 -2 105 -1 196 4 204 7 11 14 11 41 -3 38
-18 76 -21 85 -6 7 11 -50 70 -67 70 -6 0 -53 20 -104 45 -118 56 -183 58
-117 2 61 -51 63 -54 52 -89 -12 -38 -13 -42 -24 -83 -4 -16 -11 -34 -15 -40
-4 -5 -10 -23 -14 -40 -12 -49 -108 -235 -168 -325 -66 -99 -185 -226 -282
-301 -165 -128 -234 -150 -516 -166 -322 -18 -412 -1 -614 114 -69 40 -250
248 -289 333 -4 8 -17 31 -29 50 -42 69 -112 217 -156 330 -27 69 -101 281
-106 305 -2 6 -10 35 -20 66 -17 58 -26 93 -30 119 -1 8 -5 24 -9 35 -7 23
-16 69 -26 143 -10 71 4 92 56 84 51 -9 120 -8 129 1 9 8 -31 53 -49 55 -6 0
-52 9 -102 19 -137 29 -335 19 -383 -20 -25 -20 11 -26 113 -20 151 8 137 64
141 -549 2 -282 5 -576 8 -653 3 -77 8 -219 11 -315 20 -538 30 -728 50 -940
7 -79 35 -253 51 -320 9 -36 17 -69 18 -75 1 -5 10 -37 20 -70 10 -33 19 -64
20 -70 1 -5 24 -77 50 -160 180 -564 190 -588 286 -685 63 -64 109 -104 142
-125 9 -5 42 -27 73 -48 129 -88 317 -171 420 -185 56 -7 202 -7 250 0 53 8
174 45 188 57 7 5 14 9 17 8 16 -5 130 73 183 126 81 80 265 357 303 457 3 8
12 31 21 50 17 38 83 226 88 250 2 8 10 35 18 60 19 56 55 186 60 220 3 14 12
54 20 90 15 61 50 244 62 320 3 19 7 46 10 60 2 14 7 41 9 60 3 19 8 46 10 60
17 89 79 461 83 490 2 19 10 41 17 48 13 13 46 7 46 -9 0 -18 56 -67 102 -89
26 -12 50 -30 53 -39 5 -17 0 -102 -10 -170 -3 -20 -7 -54 -10 -76 -2 -22 -7
-51 -10 -65 -3 -14 -10 -52 -15 -85 -6 -33 -12 -71 -15 -85 -8 -48 -33 -187
-40 -225 -2 -16 -7 -39 -9 -50 -2 -11 -7 -42 -10 -68 -4 -27 -9 -56 -11 -65
-1 -10 -6 -37 -9 -62 -3 -25 -8 -55 -10 -66 -2 -12 -7 -37 -10 -55 -3 -19 -8
-45 -11 -59 -3 -14 -8 -38 -11 -55 -5 -29 -49 -204 -79 -313 -7 -28 -17 -57
-20 -62 -3 -5 -8 -19 -11 -30 -10 -46 -14 -59 -44 -145 -61 -175 -104 -281
-162 -399 -57 -114 -181 -317 -199 -324 -5 -2 -9 -8 -9 -14 0 -5 -6 -15 -12
-22 -7 -8 -33 -38 -58 -67 -219 -262 -515 -459 -741 -494 -118 -18 -230 0
-311 51 -73 46 -221 203 -371 394 -69 86 -248 359 -244 370 1 3 -8 19 -19 35
-21 29 -134 259 -138 280 -2 5 -10 28 -20 50 -48 109 -152 473 -196 680 -5 22
-10 49 -13 60 -5 22 -47 217 -53 250 -14 74 -27 141 -40 215 -8 47 -17 96 -19
110 -8 44 -34 203 -39 248 -3 23 -9 61 -12 85 -9 58 -10 64 -18 132 -4 33 -10
71 -12 85 -3 14 -7 45 -10 70 -3 25 -9 68 -14 95 -35 195 -34 273 7 350 56
108 75 180 79 300 4 125 -7 177 -43 196 -20 11 -26 11 -34 -1 -11 -19 -26 -73
-34 -125 -24 -175 -58 -261 -125 -318 -63 -54 -152 -69 -256 -44 -118 29 -222
142 -318 347 -32 70 -81 220 -90 279 -3 14 -8 46 -11 71 -8 48 -9 306 -2 318
3 4 8 27 11 52 13 95 33 147 84 216 56 76 123 88 209 37 62 -36 120 -95 373
-377 19 -21 50 -54 69 -73 l34 -34 13 22 c15 28 11 158 -6 219 -8 25 -14 50
-16 55 -1 6 -16 46 -34 90 -30 75 -32 84 -26 165 11 142 24 211 131 660 13 58
96 400 102 420 3 14 7 30 8 35 74 338 303 1075 385 1234 38 75 141 157 235
186 18 6 17 9 -13 35 -18 15 -50 34 -72 43 -35 13 -41 13 -77 -3 -21 -10 -53
-32 -71 -50 -18 -17 -51 -40 -75 -50 -50 -22 -136 -34 -156 -21 -23 14 31 59
130 107 112 56 157 68 263 68 61 1 91 5 93 13 6 16 -86 74 -162 103 -52 19
-78 22 -200 21 -77 -1 -147 -3 -155 -5 -8 -3 -33 -7 -55 -11 -87 -12 -250 -58
-262 -74 -18 -24 -16 -66 6 -85 20 -18 41 -21 81 -12 152 35 187 30 133 -20
-62 -58 -94 -66 -300 -77 -7 0 -14 -6 -17 -13 -3 -8 17 -20 60 -34 77 -26 78
-33 30 -128 -51 -99 -69 -158 -82 -268 -7 -57 1 -69 38 -56 35 13 55 4 73 -31
28 -57 56 -102 72 -117 14 -13 15 -11 9 25 -3 22 -9 51 -12 65 -8 34 -8 118 0
159 11 53 62 152 103 199 41 46 94 63 133 42 29 -15 23 -48 -37 -210 -62 -165
-167 -508 -188 -611 -2 -9 -24 -96 -50 -195 -26 -98 -49 -190 -51 -204 -3 -14
-10 -43 -16 -65 -5 -22 -11 -47 -13 -55 -2 -8 -8 -35 -15 -60 -7 -25 -14 -56
-17 -70 -2 -14 -13 -63 -24 -110 -12 -47 -23 -94 -24 -105 -2 -11 -16 -72 -30
-135 -15 -63 -36 -155 -47 -205 -10 -49 -21 -99 -24 -110 -3 -11 -7 -31 -10
-45 -17 -90 -37 -109 -85 -85 -16 9 -29 13 -29 11 0 -3 -12 -1 -27 5 -77 30
-229 16 -325 -30 -117 -56 -225 -196 -243 -313 -8 -60 -17 -101 -24 -122 -4
-12 -6 -86 -5 -166 2 -130 6 -159 38 -285 55 -210 123 -382 200 -503 101 -160
243 -234 471 -247 87 -4 102 -11 114 -48 9 -31 24 -127 36 -232 13 -119 15
-142 21 -175 7 -45 14 -96 19 -140 2 -19 7 -47 9 -61 3 -14 8 -45 10 -70 3
-24 6 -44 6 -44 1 0 3 -11 5 -25 1 -14 6 -41 9 -60 11 -60 17 -94 21 -125 2
-16 6 -41 9 -55 3 -14 8 -43 11 -65 11 -69 17 -98 31 -170 8 -38 17 -81 19
-95 3 -14 10 -47 16 -75 6 -27 13 -63 16 -80 15 -96 97 -418 138 -540 130
-392 309 -717 588 -1068 122 -153 203 -239 282 -302 90 -72 100 -95 97 -215
-4 -168 -2 -378 3 -403 10 -51 48 -77 165 -117 95 -31 97 -32 188 -37 62 -3
99 0 140 13 143 44 171 75 187 209 3 28 8 64 10 80 2 17 7 53 10 80 3 28 8 66
11 85 3 19 8 55 10 80 9 105 39 168 101 216 61 46 223 194 288 263 33 35 72
77 87 93 56 58 240 311 261 358 4 8 16 29 27 45 64 101 219 443 222 492 0 5 5
19 10 33 8 20 65 204 66 213 1 1 3 9 6 17 8 25 124 492 129 525 6 33 23 116
32 155 3 14 8 34 9 45 2 11 7 40 11 65 3 24 8 47 10 50 2 3 6 29 10 59 4 30 9
63 11 75 3 12 7 41 10 66 2 25 9 72 14 105 5 33 12 80 15 105 6 50 14 112 20
150 2 14 7 50 10 80 12 103 26 125 114 167 84 41 176 140 233 250 47 91 92
227 103 313 3 25 11 70 17 100 29 154 5 334 -65 480 -60 123 -164 182 -329
184 -36 1 -69 3 -72 6 -2 3 -7 98 -11 210 -6 208 -12 347 -20 417 -2 21 -7 70
-10 108 -4 39 -8 72 -10 75 -2 3 -6 34 -10 70 -4 36 -9 68 -10 71 -2 3 -11 48
-19 100 -9 52 -18 105 -21 119 -3 14 -10 54 -16 90 -5 36 -16 97 -24 135 -8
39 -16 81 -19 95 -5 27 -21 101 -29 137 -3 12 -15 56 -27 98 -12 42 -23 84
-25 93 -6 27 -95 284 -110 317 -7 17 -22 53 -34 81 -31 80 -143 309 -208 424
-113 201 -188 313 -270 401 -46 49 -83 96 -83 104 0 24 42 18 105 -15 81 -43
112 -66 182 -137 35 -35 66 -63 71 -63 14 0 7 80 -11 131 -22 64 -59 139 -69
139 -4 0 -8 5 -8 11 0 6 -15 27 -34 47 -26 27 -32 40 -24 49 12 15 44 17 53 3
3 -5 15 -10 25 -10 11 0 81 -20 156 -45 85 -28 141 -42 147 -36 42 42 -163
212 -333 276 -59 22 -71 25 -163 40 -42 7 -80 15 -83 18 -11 10 15 44 63 83
65 53 130 121 162 169 14 22 34 49 44 59 9 11 17 23 17 26 0 4 12 13 28 21 41
21 75 56 68 68 -4 6 -24 20 -45 31 -21 10 -50 33 -64 50 -24 28 -67 42 -67 21
0 -20 -61 -69 -92 -75 -18 -3 -44 -9 -58 -12 -14 -3 -36 -7 -50 -10 -186 -37
-431 -138 -594 -246 -32 -21 -73 -45 -91 -53 l-33 -13 9 31 c7 27 81 105 100
107 3 0 15 8 27 18 12 9 39 30 62 46 45 33 48 41 23 54 -72 35 -252 -24 -328
-108 -27 -30 -60 -26 -63 7 -12 147 -56 275 -113 331 -69 68 -184 116 -252
105 -17 -3 -37 -6 -43 -7 -24 -4 -64 -43 -66 -65 -3 -28 16 -40 102 -65 159
-45 226 -165 196 -351 -2 -11 -4 -23 -5 -28 -3 -20 -51 -25 -107 -10 -33 8
-67 17 -77 19 -115 22 -173 71 -182 152 -2 20 -4 37 -5 37 -1 0 -2 20 -2 45
-2 75 12 156 43 240 16 44 29 83 29 85 0 3 -8 5 -19 5 -10 0 -46 -26 -81 -57z
m-142 -5095 c26 -17 49 -35 52 -38 3 -4 12 -10 20 -13 8 -4 31 -17 50 -28 65
-39 224 -124 323 -172 l97 -48 -6 -87 c-3 -48 -8 -98 -9 -112 -2 -14 -4 -37
-4 -53 -1 -32 21 -36 -231 35 -96 27 -183 51 -192 53 -15 3 -16 -6 -13 -80 6
-123 15 -209 23 -216 7 -6 39 -20 272 -118 80 -34 151 -65 158 -69 8 -5 15
-35 17 -73 4 -58 11 -183 20 -344 9 -144 18 -418 18 -512 l0 -101 -68 -88
c-70 -91 -102 -128 -196 -227 l-56 -59 -22 23 c-29 31 -70 106 -116 209 -33
76 -93 229 -99 255 -2 6 -6 17 -9 25 -10 26 -25 83 -31 117 -5 30 -2 33 47 58
64 34 103 60 142 96 l30 28 31 -42 c18 -23 43 -64 58 -92 14 -27 26 -45 27
-40 0 6 2 46 4 89 4 90 13 257 20 361 2 39 7 89 10 111 5 38 3 44 -22 62 -50
35 -251 97 -476 147 l-28 6 6 142 c3 78 8 178 10 222 3 44 7 105 9 135 10 143
38 366 58 454 8 37 13 45 20 33 5 -9 30 -31 56 -49z m1687 -275 c-7 -196 -14
-452 -20 -643 -2 -80 -6 -223 -9 -317 l-6 -173 115 0 c85 0 115 -3 116 -12 1
-18 -2 -78 -6 -97 -35 -183 -237 -669 -332 -798 -70 -96 -65 -197 -48 982 4
242 9 573 11 735 6 426 -3 376 74 419 36 20 74 41 85 48 11 7 21 13 23 13 1 0
0 -71 -3 -157z m-258 -44 c11 -52 10 -588 -1 -814 -15 -305 -16 -307 -31 -542
-3 -43 -8 -121 -11 -173 -9 -156 -11 -191 -18 -280 -4 -47 -9 -110 -11 -140
-15 -215 -15 -213 -42 -249 -15 -20 -37 -44 -48 -54 -18 -15 -89 -57 -98 -57
-1 0 -3 231 -4 513 0 281 -1 570 -2 640 l-1 128 -97 -5 c-53 -3 -98 -8 -100
-10 -3 -3 -15 -1073 -13 -1218 l0 -67 -57 4 c-74 5 -122 17 -163 41 l-32 19 7
405 c9 579 15 1792 8 1804 -4 5 -7 21 -8 36 l-2 27 56 -12 c83 -17 303 -11
416 11 11 3 36 6 55 9 19 3 64 14 100 24 36 11 70 18 75 17 6 -1 15 -27 22
-57z m-464 -3494 c16 -15 16 -26 2 -260 -2 -33 -4 -71 -4 -85 -3 -51 -23 -62
-120 -68 -86 -4 -91 -3 -115 21 -16 16 -24 33 -21 49 2 12 6 55 10 93 11 124
15 170 19 190 3 11 5 23 5 28 1 11 45 26 93 32 23 3 43 7 44 8 11 11 75 5 87
-8z"/>
<path d="M5670 4195 l0 -215 110 0 110 0 0 215 0 215 -110 0 -110 0 0 -215z"/>
<path d="M5488 9181 c-13 -34 -13 -42 1 -80 l17 -42 22 40 c28 49 27 57 -2 91
l-24 29 -14 -38z"/>
<path d="M5278 9136 c-23 -17 -22 -33 5 -78 22 -34 24 -36 35 -18 14 23 16 70
4 70 -5 0 -13 9 -18 19 -8 17 -12 18 -26 7z"/>
<path d="M5078 9115 c-6 -30 10 -63 40 -83 21 -14 22 -13 22 10 0 13 -7 33
-15 44 -8 10 -15 27 -15 37 0 26 -27 20 -32 -8z"/>
<path d="M5603 9079 c-48 -78 -23 -121 35 -60 39 42 41 110 2 111 -3 0 -19
-23 -37 -51z"/>
<path d="M4889 9017 c-11 -25 -10 -30 13 -54 14 -14 31 -22 37 -19 15 10 14
16 -13 61 l-24 40 -13 -28z"/>
<path d="M4855 8459 c-13 -20 5 -56 50 -98 25 -23 45 -46 45 -51 0 -7 -51 -29
-80 -35 -8 -2 -70 -30 -142 -65 -64 -31 -118 -73 -118 -91 0 -18 62 -25 135
-15 62 9 74 10 103 8 20 -2 21 -4 11 -24 -7 -13 -38 -52 -71 -88 -60 -67 -79
-112 -36 -89 12 6 27 16 32 21 6 5 36 27 66 49 30 21 60 43 65 47 90 69 191
134 214 137 57 7 255 -76 374 -156 83 -57 128 -97 235 -212 28 -30 52 -47 67
-47 21 0 22 3 16 33 -15 65 -61 130 -159 224 -101 98 -228 176 -357 218 -93
30 -158 68 -210 120 -25 26 -60 48 -143 91 -69 36 -87 40 -97 23z m243 -168
c67 -63 67 -63 2 -76 -12 -2 -30 -7 -41 -10 -11 -4 -34 -8 -52 -11 -18 -2 -52
-7 -77 -10 -75 -10 -103 -10 -107 2 -5 14 27 26 135 55 87 22 98 34 67 75 -8
10 -15 22 -15 27 -1 20 31 1 88 -52z"/>
<path d="M5237 7818 c-10 -7 -22 -30 -27 -51 -7 -33 -5 -40 19 -65 15 -15 45
-33 67 -41 218 -76 384 -229 506 -467 138 -267 147 -488 29 -671 -135 -209
-423 -291 -646 -183 -73 35 -150 113 -187 187 -28 58 -32 75 -32 147 0 44 5
92 11 106 6 14 11 29 11 33 0 5 13 25 29 45 69 92 151 135 256 135 86 0 87 -1
156 -36 165 -86 219 -283 109 -400 -71 -75 -191 -64 -241 21 -18 30 -18 34 -3
57 14 21 21 24 59 19 23 -3 54 -9 69 -14 55 -18 72 0 84 85 2 16 5 39 8 50 11
56 -37 91 -136 99 -114 9 -191 -29 -245 -122 -24 -40 -28 -58 -28 -127 0 -70
4 -87 30 -134 58 -105 140 -150 262 -146 98 4 180 42 255 120 23 24 68 100 73
123 2 9 8 29 14 44 13 34 6 160 -12 218 -49 154 -168 268 -312 298 -55 11
-179 8 -245 -7 -62 -15 -164 -67 -211 -108 -33 -29 -36 -32 -70 -73 -30 -36
-77 -132 -84 -171 -3 -18 -8 -36 -11 -41 -8 -13 -8 -141 0 -166 4 -11 8 -29
10 -39 11 -52 74 -158 130 -216 248 -261 682 -230 966 67 57 60 73 61 85 7 6
-30 41 -74 53 -68 24 14 153 47 162 42 5 -3 17 -20 26 -37 48 -93 153 -130
254 -88 37 15 80 57 80 78 0 6 4 12 9 12 5 0 12 15 16 33 4 17 9 34 9 37 6 16
20 81 32 145 13 73 12 198 -3 244 -27 81 -84 143 -167 184 -67 33 -91 40 -143
39 -44 -1 -143 -38 -143 -53 0 -5 -5 -9 -11 -9 -6 0 -22 -13 -36 -30 -33 -40
-59 -39 -67 3 -3 17 -8 41 -10 52 -3 16 -35 127 -42 145 -1 3 -5 16 -9 30 -17
53 -104 212 -158 287 -62 86 -169 200 -233 251 -23 17 -85 53 -139 79 -107 51
-193 67 -228 41z m1139 -1007 c30 -19 56 -61 69 -114 7 -27 6 -28 -29 -24 -20
2 -39 6 -42 10 -3 3 -18 1 -33 -4 -14 -6 -27 -10 -28 -10 -32 9 -79 -43 -99
-109 -19 -66 -33 -72 -46 -21 -8 28 -2 47 40 135 50 104 90 156 120 156 9 0
31 -9 48 -19z m-13 -333 c-15 -17 -18 -17 -26 -3 -12 23 11 49 30 34 11 -10
11 -15 -4 -31z"/>
<path d="M6618 7787 c-145 -117 -299 -269 -345 -343 -63 -100 -86 -154 -67
-154 5 0 38 27 74 60 122 114 204 176 358 274 69 44 89 66 58 66 -23 0 -29 38
-11 66 9 14 14 32 11 40 -7 19 -49 14 -78 -9z"/>
<path d="M4243 7054 c-20 -20 -24 -32 -19 -57 8 -40 57 -87 86 -82 42 8 60 17
61 28 0 7 2 20 4 31 8 44 -40 106 -82 106 -13 0 -35 -12 -50 -26z m77 -54 c0
-22 -16 -35 -25 -20 -9 14 4 52 16 45 5 -4 9 -15 9 -25z"/>
<path d="M4521 6959 c-85 -34 -57 -142 33 -125 32 6 47 24 51 61 3 26 -40 81
-58 74 -1 0 -13 -5 -26 -10z"/>
<path d="M4120 6737 c-48 -24 -32 -107 25 -121 25 -6 63 7 77 28 14 21 8 66
-12 86 -23 23 -54 25 -90 7z"/>
<path d="M3402 5959 c-12 -5 -22 -14 -22 -20 0 -7 38 -49 85 -93 95 -90 99
-101 71 -185 -26 -75 -27 -117 -4 -187 15 -45 27 -65 48 -78 l29 -17 8 38 c4
21 8 40 8 43 1 3 5 24 9 47 8 45 25 66 43 55 18 -12 61 -124 78 -207 8 -36 8
-35 4 -107 -1 -41 3 -64 16 -84 l17 -27 31 31 c30 30 30 32 31 139 1 109 -2
131 -24 213 -17 64 -77 186 -121 246 -49 66 -133 142 -184 163 -71 31 -101 38
-123 30z"/>
<path d="M5980 5789 c-49 -6 -97 -15 -125 -23 -10 -3 -17 -6 -85 -33 -61 -24
-176 -101 -213 -142 -38 -42 -53 -99 -43 -156 26 -142 281 -185 505 -84 59 27
138 82 169 119 142 166 108 301 -80 318 -40 4 -98 4 -128 1z m133 -84 c69 -14
92 -73 49 -130 -21 -28 -117 -105 -131 -105 -9 0 -10 19 -6 68 6 60 4 70 -15
90 -17 18 -25 20 -40 12 -32 -17 -41 -47 -39 -127 2 -71 1 -76 -23 -91 -38
-23 -58 -10 -58 38 0 50 -24 100 -48 100 -18 0 -35 -30 -55 -101 -11 -36 -17
-45 -39 -47 -40 -5 -85 23 -92 55 -13 62 5 94 79 137 169 99 288 128 418 101z"/>
<path d="M7361 5342 c-92 -49 -207 -206 -218 -301 -5 -44 -3 -51 11 -51 9 0
25 14 34 32 20 38 71 93 78 85 8 -7 7 -52 0 -152 -4 -46 -2 -86 4 -95 26 -40
60 65 75 235 12 137 22 156 123 236 10 8 10 14 1 25 -15 19 -56 14 -108 -14z"/>
<path d="M6541 2581 c-12 -16 -21 -32 -21 -36 0 -8 -89 -141 -117 -175 -68
-84 -200 -202 -288 -258 -38 -24 -140 -70 -170 -78 -16 -4 -34 -9 -40 -13 -5
-3 -17 -7 -25 -8 -8 -1 -35 -6 -60 -11 -100 -18 -228 -6 -390 36 -107 29 -320
117 -340 141 -6 7 -38 28 -58 37 -22 11 -73 56 -162 143 -92 91 -107 91 -74 3
33 -86 72 -147 141 -217 170 -173 376 -273 623 -301 87 -10 141 -11 146 -2 3
4 9 6 14 3 4 -2 32 -1 61 5 30 5 72 12 94 15 87 14 102 18 169 41 71 25 160
70 209 108 41 32 147 136 147 146 0 5 4 10 9 12 13 5 78 110 105 171 40 92 74
251 56 262 -5 3 -18 -8 -29 -24z"/>
</g>
</svg>
