<svg id="Layer_1" data-name="Layer 1" xmlns="http://www.w3.org/2000/svg" viewBox="0 0 570 1080"><defs><style>.cls-1{fill:#3e7663;}</style></defs><path class="cls-1" d="M518,529.43c-3.57-15.3-9.57-28.69-26.72-32.76a45.92,45.92,0,0,0-12.77-1c-6.4.31-6.38.48-6.54-6.05-.33-13-.84-25.93-1.26-38.89-1-32.1-7.66-63.4-13.2-94.88-10-56.67-32.33-108.19-64.19-155.77-4-6-9.92-10.72-14.83-16.14-1-1.14-1.55-2.76-2.3-4.16,1.8-.38,4.05-1.65,5.33-1a152.85,152.85,0,0,1,17.95,10.36c2.91,2,4.65,5.64,7.28,8.16,1.95,1.88,4.47,3.16,6.74,4.7-.05-2.92.54-6-.28-8.72-3-9.6-6.86-18.78-14.55-25.8-.87-.8-1.16-2.25-1.72-3.39,1.44-.36,3.07-1.35,4.3-1,8.62,2.53,17.16,5.32,25.72,8.07,2.22.71,4.36,1.67,6.61,2.27a15.72,15.72,0,0,0,3.7.06c-.17-1.2.06-2.69-.57-3.53a50.63,50.63,0,0,0-7.07-8.33c-12.88-11.14-27.53-18.61-44.68-20.52a21.54,21.54,0,0,1-4-.43c-1.13-.34-2.87-1.07-3-1.8-.13-1,.85-2.39,1.72-3.22,2.41-2.29,4.93-4.49,7.55-6.54a66.39,66.39,0,0,0,16.86-19.49c2.12-3.69,6.68-6,10.19-8.85a25.26,25.26,0,0,1,3.18-1.91c-1-1.24-1.67-3.09-2.94-3.63-4.33-1.84-8-4.19-10.76-8.18-1.65-2.37-3.94-1.86-5.4,1-2.35,4.6-6.53,6.18-11.39,7a179,179,0,0,0-73.31,30.07c-1.87,1.31-4.42,1.66-6.65,2.45.88-2.35,1.1-5.5,2.77-6.91,6-5.1,12.55-9.59,18.86-14.35a33.27,33.27,0,0,0,2.81-2.64c-1.32-.77-2.58-2.07-4-2.24-9.37-1.1-17.8,1.6-25.38,7-2.7,1.94-5.15,4.22-7.79,6.25-2.22,1.71-3.59,1-4-1.7-.8-5.27-1.37-10.58-2.4-15.8C285.27,83.68,277.23,74.53,264.25,70c-6.52-2.29-13.25-2.29-19.15,1.83-1.66,1.16-3.25,4-3,5.8.18,1.31,3.32,2.8,5.33,3.19,19.49,3.81,27.28,13.76,25.82,33.32-.6,8.12-3.05,9.75-10.65,7.49-4.14-1.22-8.38-2.09-12.61-3-9.1-1.9-13.19-5.8-14.67-15.16a58.31,58.31,0,0,1,3.6-31.38c1.24-3.07,2.4-6.16,3.6-9.24h-4c-1.69,1.54-3.31,3.17-5.09,4.61-9.25,7.49-15.75,16.46-14.6,29,.64,6.9-.55,12.41-7.06,16.16a9,9,0,0,0-3.89,5.56c-1.09,6.37-6,7.94-10.79,10.45-5.78,3-13.23,6.07-15.77,11.19-3.41,6.88-8.06,9.71-14.39,11.89a47.73,47.73,0,0,0-8.1,3.87c-1.29.73-2.2,2.1-3.28,3.18a20,20,0,0,0,4.38.48c13.56-1.41,27.11-4,40.68-4.1,14.92-.1,29.12,3.57,38.46,17.24,2,2.89,4.91,5.11,7.4,7.64.54-3.74,1-7.49,1.61-11.22,1.19-7.77-2.25-12.94-9.27-15.66-7.69-3-15.56-5.52-23.31-8.33-2.6-1-5.1-2.16-7.65-3.25,2.41-.9,4.76-2.19,7.25-2.62,4.43-.75,8.77-1.69,10.73-6.16,2.06-4.68,3.57-3.29,6.14-.4,4.63,5.19,9,11.11,14.7,14.73,6.45,4.08,12.19,7.84,14.12,15.68.26,1.07,1.74,1.84,2.65,2.75.63-1,1.71-2,1.82-3.11.54-5.3.75-10.62,1.23-15.92a25.41,25.41,0,0,1,1.16-4.37c1.36.78,3.18,1.25,4,2.41,3.62,5.18,6.79,10.68,10.51,15.79,1,1.36,3.31,1.75,5,2.58.22-1.57.84-3.22.59-4.71-1.21-7.22-2.88-14.36-3.86-21.6-.25-1.83,1.44-3.92,2.24-5.89,1.42,1.54,3.36,2.85,4.16,4.66,2.39,5.47,4.28,11.15,6.51,16.69.3.73,1.47,1.1,2.23,1.64a8.76,8.76,0,0,0,1.23-2.31c.58-2.93.89-5.91,1.52-8.83.19-.84,1.11-1.53,1.7-2.29.55.72,1.49,1.39,1.6,2.18.63,4.61.93,9.28,1.67,13.87.22,1.38,1.5,2.59,2.3,3.87,1.15-1,2.65-1.82,3.39-3.08,2.87-4.85,4.74-10.5,8.35-14.67,14.34-16.59,34.29-23.45,54.34-29.93a1.59,1.59,0,0,1,1-.08,10,10,0,0,1,3.17,1.5c.25.23-.34,2-1,2.54-4.13,3.34-8.13,6.95-12.65,9.67-12.84,7.73-25.92,15.06-38.9,22.57-4.15,2.4-8.4,5.14-7.71,10.61.75,5.89,2.4,11.68,3.89,17.46.28,1.09,1.67,1.89,2.55,2.82a10.9,10.9,0,0,0,1.27-2.65c2.07-11,10.37-15.23,19.8-17.09,8.7-1.71,17.71-1.9,26.61-2.52.81-.06,1.75,1.64,2.62,2.53a12.14,12.14,0,0,1-2.61,1.28c-2.92.67-6.05.72-8.78,1.82-8,3.21-15.84,6.63-23.58,10.34-3.71,1.78-3.76,4.28.09,6.41a100.54,100.54,0,0,1,10.32,6c19.23,13.93,33.94,31.81,45.41,52.49,15.24,27.5,26.82,56.54,36.09,86.51,8,25.89,11,52.69,14.54,79.46a833,833,0,0,1,7.58,112.57c0,4.15,1.74,8.37,3,12.45,1.11,3.59,3.37,3.81,5.78,1.09,4-4.49,7.79-9.13,11.81-13.58,5.82-6.45,12.14-6.31,17.47.49a23.14,23.14,0,0,1,3.69,7c8.63,26.24,5.28,51.42-8.39,75-3.46,5.95-9.62,11.85-15.91,14.35-15,6-17.82.12-17.9-11.23-.08-11-1.42-21.91-2.38-32.85-.09-1.07-1.37-2-2.09-3-.64.74-1.55,1.38-1.87,2.24-2,5.63-3.86,11.33-6,16.93-.52,1.37-1.88,2.42-2.86,3.62-.44-1.49-1.23-3-1.27-4.45q-1-37-1.86-74c0-1-.06-2,0-3,.16-4,2.17-4.42,5.23-2.59.86.51,1.65,1.5,2.51,1.56a49.88,49.88,0,0,0,6.1-.26c-.79-1.66-1.15-4.18-2.45-4.83q-12.4-6.24-25.21-11.65c-1.31-.56-3.39.67-5.12,1.07a31,31,0,0,0,3.39,3.21c7,4.86,6.86,4.79,4.46,12.6-9.79,31.72-26,58.92-53.7,78.5-8.07,5.71-16.49,10.46-26.21,11.52-13.54,1.47-27.19,2.33-40.81,2.62-27.37.59-47.85-12.85-63.11-34.18-18.82-26.3-29.59-56.52-38.88-87.21a209.8,209.8,0,0,1-6.05-27.28c-1.71-10.64-.36-11.61,9.88-9.35,1,.21,2,.77,2.91.58,2.35-.48,4.63-1.28,6.94-2-1.65-1.39-3.08-3.41-5-4.07a84.16,84.16,0,0,0-47.24-2.26c-1.4.32-2.54,1.77-3.8,2.7,1.36.54,2.72,1.55,4.06,1.52,3-.07,5.94-.75,8.92-1,11.68-1.07,13.56.51,13.59,12,0,24-.52,47.95.09,71.91,1.07,42.63,2.31,85.28,4.47,127.87,1.41,27.91,3.64,55.9,11.95,82.86,7.05,22.88,14.29,45.72,21.93,68.41a55.05,55.05,0,0,0,15.73,24c14.4,12.63,30.38,22.81,48.41,29.42,31.38,11.5,67.64-1.28,82.95-23,9.81-14,19.35-28,25.71-43.86,12-29.81,19.5-60.79,24.54-92.47,3.76-23.67,7.91-47.27,12-70.89.25-1.45,1.38-2.74,2.1-4.1,1.22.93,2.94,1.61,3.58,2.85a18,18,0,0,0,11.22,9.24c3.63,1.15,5.15,3.93,4.72,7.78-.69,6.29-1,12.64-2,18.87-4,24.3-8.82,48.49-12.36,72.86-4.43,30.51-13.05,59.86-23.33,88.74-13.89,39-35.37,73.05-68.31,99-12.14,9.57-25.31,17-40.52,20.9-17.95,4.59-33.22,1.7-46.56-12.08C224.23,887.6,196.22,841.81,182.24,788a1085.13,1085.13,0,0,1-25.91-130.2c-2.53-19.14-5.37-38.24-8.13-57.36a24,24,0,0,1,3.41-16.18c6.91-11.86,8.95-25,8.3-38.53a20.72,20.72,0,0,0-2.24-8.56c-.91-1.7-3.39-2.55-5.17-3.79a29.21,29.21,0,0,0-2.14,5.1c-2.09,9.73-3,19.85-6.24,29.15-5,14.17-17.52,19.85-32.19,16.57-10.46-2.34-17.72-8.78-23.47-17.37-20-29.92-24.93-62.73-17.81-97.49,1.13-5.55,4.62-11.08,8.33-15.52,5.18-6.21,10.85-7,17.94-3.21a46.48,46.48,0,0,1,11.88,8.88c11.66,12.35,22.89,25.1,34.34,37.64a27.62,27.62,0,0,0,3.74,2.93c.62-1.71,1.66-3.39,1.77-5.13.79-11.55-1.69-22.39-6.65-32.91-2-4.3-3.58-9.53-3.19-14.15a222.87,222.87,0,0,1,4.89-31.56c7-30.49,14.49-60.87,21.86-91.28a924.39,924.39,0,0,1,34.2-110.63c4-10.41,11.61-16.64,21-21.4,2.11-1.07,4.59-1.4,6.89-2.07a58.66,58.66,0,0,0-6.07-4.88c-7.89-4.88-11.29-4.68-18.44,2.43-6.16,6.12-13.55,8.13-21.74,8.36-1.18,0-2.39-.83-3.58-1.27.79-1.23,1.28-2.95,2.4-3.62,13.83-8.22,27.74-16.3,44.95-13.08,1,.19,2.26-.7,3.4-1.09-.7-1-1.2-2.3-2.14-2.92-9.3-6.13-19-11-30.69-10.17-6.31.46-12.75-.23-19,.72a244.22,244.22,0,0,0-28.07,6c-3.84,1.06-7.39,4.2-5.2,9.14,1.82,4.12,5.64,4,9.48,3.12,4.21-1,8.42-2,12.69-2.69,1-.18,2.28.74,3.42,1.16a12.75,12.75,0,0,1-1.92,3.13c-5.09,4.57-10.78,7.58-18,7.35a102.52,102.52,0,0,0-13,.83c-.79.08-1.5,1-2.25,1.51a8.45,8.45,0,0,0,2,1.71,32.53,32.53,0,0,0,3.84,1.09c9.18,2.62,9.42,2.75,4.77,11.15a74.13,74.13,0,0,0-9.23,29.3c-.36,3.8-.6,8.34,5.62,4.16.77-.52,3.75.81,4.54,2,2.35,3.61,4,7.66,6.17,11.4.79,1.37,2.21,2.37,3.33,3.54a32,32,0,0,0-.26-4.39c-.49-2.62-1.36-5.17-1.78-7.79-2.29-14.39,4-25.94,12.59-36.53,2.15-2.63,11.59-3.43,12.84-.95,1.16,2.31.54,6.21-.58,8.87-12.88,30.5-20.54,62.64-28.81,94.5-9.86,38-18,76.45-26.72,114.73C120,437.59,119.69,438,111.85,435c-27.33-10.45-57.92,8.34-61,37.4-.38,3.53-1.51,7-2.29,10.48v26c1.35,5.78,2.73,11.55,4.06,17.34A180.33,180.33,0,0,0,69.9,571.74c10.2,18.84,26,27.71,47,28.5,14.51.55,14.26.8,15.91,14.9C139.35,671,148,726.6,161.25,781.32a326,326,0,0,0,61.69,126.45c11,13.88,21.56,28,36.05,38.5,4.75,3.44,6.54,7.93,6.37,13.77-.38,12.65-.42,25.31-.46,38,0,10.61,1.85,13.38,11.78,17,5.86,2.17,11.88,3.88,17.84,5.8h16c3.07-1,6.11-2.19,9.23-3.06,7.43-2.07,12.16-6.26,13.08-14.42,1.52-13.55,3.83-27,5-40.6.7-8,3.87-13.9,10.14-18.53,2.14-1.58,4.1-3.4,6.14-5.11,42.08-35.17,70.61-79.1,86-131.78,12.55-42.86,22.53-86.23,28.15-130.57,1.55-12.22,3.39-24.39,4.91-36.61.63-5.08,2.69-8.33,7.76-10.39,11.26-4.57,19-13.33,24.86-23.65,7.21-12.61,11.09-26.29,12.53-40.72a99.25,99.25,0,0,1,2.14-10.56v-16C519.66,535.71,518.72,532.59,518,529.43ZM315.3,972.63c-.37,4.94-.41,9.91-.67,14.86-.67,12.68-1.64,13.6-13.91,13.32-2,0-4,.11-6,0-4.45-.29-6.59-2.8-6.2-7.2.81-9.21,1.72-18.42,2.65-27.62.34-3.32,1.88-5.55,5.57-5.75a31,31,0,0,0,3.9-.71C316.52,956.58,316.48,956.58,315.3,972.63Zm41.34-584.9c-4.13,4.41-5.19,3.87-6.32-2.32-5.32-29-20.27-52.76-41.48-72.41-6.84-6.34-16.23-10.15-24.86-14.24-3.7-1.75-8.44-1.47-12.73-1.65a5.18,5.18,0,0,0-3.88,2.24c-3.47,6-1.43,11.35,5.18,13.66,15.08,5.27,28.31,13.24,38.53,25.76a122,122,0,0,1,23.55,45.88c8.55,31.85-10.83,61.25-43.36,66-18.94,2.79-38.18-6.62-46.37-22.66-8.9-17.43-1.78-37.68,15.9-45.25,16.53-7.07,36.56,1.7,42.59,18.67,3.28,9.22,1.05,18-6.2,24.51a14.78,14.78,0,0,1-23-4.25c-2.24-4.42-.75-7.39,4.15-7.31a41.28,41.28,0,0,1,9.76,1.83c3.48.92,5.91.43,6.58-3.58.6-3.6,1.41-7.17,1.78-10.79a6.78,6.78,0,0,0-5.12-7.66c-7.8-2.13-15.83-3.1-23.39.65-8.43,4.18-14,15.57-12.92,25.23,1.28,11.48,9.54,22,19.22,24.55a35.6,35.6,0,0,0,38.06-13.76c10.33-14.39,9.31-29.46,1.75-44.39-7.87-15.56-21.39-22.15-38.47-22.12-27-.1-48.75,18.6-51.68,44.49-2.35,20.79,12.3,43.55,33.37,51.83,27,10.61,58.73,1.84,79.47-22,4.33-5,4.33-5,6.54.77,3.16,8.21,3.22,8.24,11.44,5.38,1.89-.66,3.76-1.37,5.59-2.16,3.37-1.45,5.4-.71,7,2.91,3.85,8.78,11.07,12,20.34,11s14.17-7.57,16.25-15.52a141.2,141.2,0,0,0,4.87-29.45c.62-14.35-6.67-24.71-19.7-30.84C376.55,374.91,366,377.77,356.64,387.73Zm23,46.14c-.51-1-1.46-2.09-1.42-3.11s1-2.09,1.57-3.13c.91.71,1.83,1.41,3.29,2.53Zm-8.73-31.53c4.71-7.35,10.61-6.66,15.7.63a10,10,0,0,1,1.51,2.56c.77,2.41,1.36,4.87,2,7.31-2.17-.18-4.36-.24-6.51-.56-8.57-1.28-14.53,2.55-17.13,11.14a47.34,47.34,0,0,1-1.29,4.78,11.87,11.87,0,0,1-2.09,2.61,17.15,17.15,0,0,1-1-2.72,18.3,18.3,0,0,1-.2-3l-1.43-.65C363.91,417.05,366.57,409.15,370.93,402.34ZM238.32,865.22a60.48,60.48,0,0,1-15.14-25.5c-.33-1.17.1-2.57.18-3.86a16.15,16.15,0,0,1,3.09,2.33c19.59,24,46.22,35.95,75.58,41.2,26,4.65,49.3-3.93,69.06-21.39,11.85-10.46,21.09-23,28.54-37,.56-1,1.76-1.77,2.66-2.64a23.22,23.22,0,0,1,.28,3.7c-2.65,31.15-26.77,60.59-57.09,68.68-10.51,2.8-21.48,3.87-32.23,5.72C283.85,895.8,258.72,886.4,238.32,865.22ZM359,501.32c-2.95-.43-6-.38-10.77-.66-16.24.3-31.85,7-45.71,18.12-6.1,4.9-7.39,11.7-5.76,19,1.51,6.7,6.83,9.11,12.87,11,10.38,3.25,20.8,1.76,30.48-1.17a52,52,0,0,0,30.09-23.35C376.5,513.72,371.09,503.06,359,501.32Zm3.15,20c-3.33,4.39-8.06,7.74-12.3,11.42-.53.46-1.76.12-2.67.15a21.08,21.08,0,0,1-.06-2.75c.31-3.26,1.24-6.59.84-9.75-.24-1.8-2.44-4.4-4.08-4.67s-4.81,1.76-5.14,3.25a35.38,35.38,0,0,0-.63,12.51c.51,3.44.77,5.71-3.09,6.95-4.81,1.54-5.82.53-5.09-8.08-.46-1-1.15-4.47-3.26-6.34-1.91-1.68-5.74,3.37-6.52,8.12-.44,2.65-1.91,7.39-2.61,7.33-3.39-.27-7.52-1-9.73-3.22-1.8-1.81-1.75-6-1.56-9.05.1-1.62,2-3.54,3.52-4.6,12.31-8.32,25.33-14.82,40.75-14.15a22.81,22.81,0,0,1,7.76,1.49C363.39,512,365.43,517,362.18,521.3ZM235.48,251.53c-1.87.69-3.89,1-5.69,1.85-6.33,2.92-12.74,5.72-18.81,9.1-2.36,1.32-3.91,4.1-5.83,6.21,3,.6,6,1.8,9,1.66,4.27-.2,8.5-1.37,13.06-2.17l4.47,1.06c-.64,1.45-1,3.15-2,4.3-3.67,4.3-7.62,8.36-11.32,12.64-.69.81-.69,2.23-1,3.37,1.12-.33,2.44-.39,3.34-1,10.57-7.52,21.19-15,31.53-22.8,3.95-3,7.4-3.05,12-1.56,20.72,6.75,38.71,17.45,52.83,34.36,2.74,3.28,5.53,7.44,11,6.53-1.43-3.89-2.1-8.33-4.42-11.59-12.53-17.59-29-30-49.8-36.49-7-2.2-13-5.24-18.5-10.81s-13.82-8.87-21-12.86c-1.12-.61-3.1.35-4.69.59.24,1.51,0,3.37.82,4.46a46.18,46.18,0,0,0,6.14,6.45C241.34,249.11,241.35,249.38,235.48,251.53Zm10.1,3.24c3.82-1,4.95-3,2-6.36a17.44,17.44,0,0,1-2-3.77c1.19.31,2.7.27,3.52,1,4.13,3.66,8.08,7.52,12.09,11.3-5.26,1.25-10.47,2.72-15.78,3.68S235,262,228.63,262.8l-2.15-1.2c.91-.85,1.69-2.16,2.76-2.47C234.65,257.54,240.14,256.26,245.58,254.77ZM121.15,554.17c.85-9.81-3-19.07-6.66-28.35-.43-1.07-1.74-2.48-2.65-2.48a3.78,3.78,0,0,0-2.77,2.35c-.95,3.8-1.43,7.72-2.18,11.58-.31,1.56-.87,3.06-1.31,4.59-1.59-1-3.81-1.6-4.67-3-4.93-8.18-6-17.17-2-25.72,2.87-6.05,1.84-9.89-2.9-13.83-4.09-3.4-8-7.07-11.75-10.8-.78-.75-1.4-2.56-1-3.36a3.7,3.7,0,0,1,3.22-1.5c4.13,1,8.59,1.6,12.17,3.67,21.82,12.61,36.43,46.1,31.27,70.85-.27,1.29-.37,2.84-1.15,3.75a41.2,41.2,0,0,1-4.94,4.35c-1-1.86-2.44-3.61-2.92-5.6S121,556.69,121.15,554.17ZM412,309c.84.29,1.7,3,5.19,2.57-3,2.23-5.71,4.84-8.92,6.62-14.06,7.82-26.26,18-37.75,29.13-1.42,1.37-2.94,2.64-4.87,4.36-.32-1.31-.89-2.24-.64-2.82a67,67,0,0,1,3.9-8c9.72-16.3,24.12-28.14,38.47-40a6.49,6.49,0,0,1,3.49-1.73c1.44,0,2.92.79,4.38,1.24-.48,1.14-.65,2.65-1.49,3.34C411.22,305.78,412.51,308.18,412,309Zm60.43,264.57a22.14,22.14,0,0,0-.76-4.76c-1.48,1-3.35,1.78-4.36,3.16-1.56,2.11-2.36,4.78-3.83,7-.76,1.13-2.28,1.74-3.46,2.59l-1.41-3.59c.94-12,15.78-31,26.35-34.27a10.69,10.69,0,0,1,4.88-.44,5,5,0,0,1,2.8,2.29c.24.39-.61,2.06-1.28,2.34C481.2,552,480,560.44,479.55,569.94c-.32,7.27-2,14.5-3.39,21.67-.3,1.53-2.11,2.76-3.22,4.13-.65-1.42-1.91-2.88-1.85-4.27C471.34,585.49,472.07,579.54,472.43,573.57ZM175.75,388.65c4.1.13,6.84-2.55,6.94-6.76.11-4.63-4-9.75-8-10a7.52,7.52,0,0,0-7.64,6.43C166.57,383,171.18,388.51,175.75,388.65Zm-.9-12.21c1.42,2,2.57,2.95,2.55,3.84s-1.15,1.88-1.79,2.82c-.64-.66-1.73-1.26-1.83-2C173.65,380.05,174.23,378.9,174.85,376.44ZM168,411.51a6.62,6.62,0,0,1-6.26,7.27c-3.82.17-8-3.45-7.86-7.16.2-4.33,3.05-6.28,7.12-6.5C165.38,404.89,167.63,407.31,168,411.51Zm37.58-20.7c-.08,3.74-3.19,6.34-7.37,6.14-3.83-.18-6.2-2.2-6.53-6-.28-3.23,4.36-7.62,7.74-7.72C202.59,383.15,205.63,386.88,205.55,390.81Zm94.14-227.56c-.11,2.48.07,3.25-.21,3.78-1.23,2.35-2.59,4.63-3.9,6.94-1-2.32-2-4.62-2.83-7a3.09,3.09,0,0,1,0-2c.79-2.27,1.7-4.5,2.57-6.74C297.07,160.28,298.81,162.26,299.69,163.25Zm4.16,18.58-1.67-5c1.78-2.75,3.82-6.16,6.18-9.33.31-.41,3.07.09,3.29.69,1.77,4.73-1.35,8.05-4,11.32C306.81,180.62,305.15,181.08,303.85,181.83Zm-28.39-3.94a75.77,75.77,0,0,1-4.84-9.33c-.24-.63,2.26-2.3,3.49-3.49l4.63,6.8Zm-18.06.16c-1.5-1.8-3.7-3.48-4.47-5.66-.67-1.9.27-4.36.57-6.56,0,0,1.56-.08,1.69.2,1.57,3.49,3,7,4.43,10.61A16.58,16.58,0,0,1,257.4,178.05Zm-24.3,3.36c-.5-.71.75-2.64,1.89-6.07a96.63,96.63,0,0,1,4.87,8.44c.25.57-1,1.78-1.49,2.69C236.56,184.82,234.47,183.37,233.1,181.41ZM270,636c5,2-44-12-44-12l2,30,45,19s6,87,4,103c-15,21-24,29-31,37-7,0-28-53-29-66,7-3,18-9,22-15,8,8,12,19,12,19s2-50,4-62c-8-8-53-17-53-17s1-64,9-100c9,12,61,36,61,36Zm18,200c-1-14,5-211,0-227,17,6,54,1,70-5,12-4.5-6,222-6,222s-7,13-18,15c1-13,0-128,0-128l-20,1-1,129S293,843,288,836Zm24-154h22V639H312Zm54,135,3-217,18-10-4,129h23c4,15-24,74-28,82S366,817,366,817Z"/><path class="cls-1" d="M410,289c-8.75,0-17,9.41-17,18.16a15.73,15.73,0,0,0,.28,2.93l1.77-1.55c0-.26,0-.52,0-.78A13.23,13.23,0,1,1,408.24,321c-.26,0-.51,0-.77,0-.86.5-1.73,1-2.59,1.53a15.78,15.78,0,0,0,19.8-15.32C424.68,298.41,418.75,289,410,289Z"/></svg>